  0
SECTION
  2
HEADER
  9
$ACADVER
  1
AC1015
  9
$ACADMAINTVER
 70
6
  9
$DWGCODEPAGE
  3
ANSI_1252
  9
$INSBASE
 10
0.0
 20
0.0
 30
0.0
  9
$EXTMIN
 10
0.0
 20
0.0
 30
0.0
  9
$EXTMAX
 10
210.0
 20
297.0
 30
0.0
  9
$LIMMIN
 10
0.0
 20
0.0
  9
$LIMMAX
 10
210.0
 20
297.0
  9
$ORTHOMODE
 70
0
  9
$REGENMODE
 70
1
  9
$FILLMODE
 70
1
  9
$QTEXTMODE
 70
0
  9
$MIRRTEXT
 70
1
  9
$LTSCALE
 40
1.0
  9
$ATTMODE
 70
1
  9
$TEXTSIZE
 40
3.5
  9
$TRACEWID
 40
1.0
  9
$TEXTSTYLE
  7
Standard
  9
$CLAYER
  8
0
  9
$CELTYPE
  6
ByLayer
  9
$CECOLOR
 62
256
  9
$CELTSCALE
 40
1.0
  9
$DISPSILH
 70
0
  9
$DIMSCALE
 40
1.0
  9
$DIMASZ
 40
3.302
  9
$DIMEXO
 40
1.0
  9
$DIMDLI
 40
3.75
  9
$DIMRND
 40
0.0
  9
$DIMDLE
 40
0.0
  9
$DIMEXE
 40
1.0
  9
$DIMTP
 40
0.0
  9
$DIMTM
 40
0.0
  9
$DIMTXT
 40
3.5
  9
$DIMCEN
 40
2.5
  9
$DIMTSZ
 40
0.0
  9
$DIMTOL
 70
0
  9
$DIMLIM
 70
0
  9
$DIMTIH
 70
1
  9
$DIMTOH
 70
1
  9
$DIMSE1
 70
0
  9
$DIMSE2
 70
0
  9
$DIMTAD
 70
1
  9
$DIMZIN
 70
0
  9
$DIMBLK
  1

  9
$DIMASO
 70
1
  9
$DIMSHO
 70
1
  9
$DIMPOST
  1

  9
$DIMAPOST
  1

  9
$DIMALT
 70
0
  9
$DIMALTD
 70
3
  9
$DIMALTF
 40
0.0393700787
  9
$DIMLFAC
 40
1.0
  9
$DIMTOFL
 70
1
  9
$DIMTVP
 40
0.0
  9
$DIMTIX
 70
0
  9
$DIMSOXD
 70
0
  9
$DIMSAH
 70
0
  9
$DIMBLK1
  1

  9
$DIMBLK2
  1

  9
$DIMSTYLE
  2
ISO-25
  9
$DIMCLRD
 70
0
  9
$DIMCLRE
 70
0
  9
$DIMCLRT
 70
0
  9
$DIMTFAC
 40
1.0
  9
$DIMGAP
 40
1.524
  9
$DIMJUST
 70
0
  9
$DIMSD1
 70
0
  9
$DIMSD2
 70
0
  9
$DIMTOLJ
 70
0
  9
$DIMTZIN
 70
0
  9
$DIMALTZ
 70
0
  9
$DIMALTTZ
 70
0
  9
$DIMUPT
 70
0
  9
$DIMDEC
 70
2
  9
$DIMTDEC
 70
2
  9
$DIMALTU
 70
2
  9
$DIMALTTD
 70
3
  9
$DIMTXSTY
  7
Standard
  9
$DIMAUNIT
 70
0
  9
$DIMADEC
 70
2
  9
$DIMALTRND
 40
0.0
  9
$DIMAZIN
 70
0
  9
$DIMDSEP
 70
44
  9
$DIMATFIT
 70
3
  9
$DIMFRAC
 70
0
  9
$DIMLDRBLK
  1

  9
$DIMLUNIT
 70
2
  9
$DIMLWD
 70
-2
  9
$DIMLWE
 70
-2
  9
$DIMTMOVE
 70
0
  9
$LUNITS
 70
2
  9
$LUPREC
 70
2
  9
$SKETCHINC
 40
1.0
  9
$FILLETRAD
 40
10.0
  9
$AUNITS
 70
0
  9
$AUPREC
 70
2
  9
$MENU
  1
.
  9
$ELEVATION
 40
0.0
  9
$PELEVATION
 40
0.0
  9
$THICKNESS
 40
0.0
  9
$LIMCHECK
 70
0
  9
$CHAMFERA
 40
0.0
  9
$CHAMFERB
 40
0.0
  9
$CHAMFERC
 40
0.0
  9
$CHAMFERD
 40
0.0
  9
$SKPOLY
 70
0
  9
$TDCREATE
 40
2460811.571238426
  9
$TDUCREATE
 40
2459003.303773646
  9
$TDUPDATE
 40
2460811.571238426
  9
$TDUUPDATE
 40
2459003.303778148
  9
$TDINDWG
 40
1.16e-08
  9
$TDUSRTIMER
 40
1.16e-08
  9
$USRTIMER
 70
1
  9
$ANGBASE
 50
0.0
  9
$ANGDIR
 70
0
  9
$PDMODE
 70
0
  9
$PDSIZE
 40
-1.0
  9
$PLINEWID
 40
0.0
  9
$SPLFRAME
 70
0
  9
$SPLINETYPE
 70
6
  9
$SPLINESEGS
 70
8
  9
$HANDSEED
  5
101
  9
$SURFTAB1
 70
6
  9
$SURFTAB2
 70
6
  9
$SURFTYPE
 70
6
  9
$SURFU
 70
6
  9
$SURFV
 70
6
  9
$UCSBASE
  2

  9
$UCSNAME
  2

  9
$UCSORG
 10
0.0
 20
0.0
 30
0.0
  9
$UCSXDIR
 10
1.0
 20
0.0
 30
0.0
  9
$UCSYDIR
 10
0.0
 20
1.0
 30
0.0
  9
$UCSORTHOREF
  2

  9
$UCSORTHOVIEW
 70
0
  9
$UCSORGTOP
 10
0.0
 20
0.0
 30
0.0
  9
$UCSORGBOTTOM
 10
0.0
 20
0.0
 30
0.0
  9
$UCSORGLEFT
 10
0.0
 20
0.0
 30
0.0
  9
$UCSORGRIGHT
 10
0.0
 20
0.0
 30
0.0
  9
$UCSORGFRONT
 10
0.0
 20
0.0
 30
0.0
  9
$UCSORGBACK
 10
0.0
 20
0.0
 30
0.0
  9
$PUCSBASE
  2

  9
$PUCSNAME
  2

  9
$PUCSORG
 10
0.0
 20
0.0
 30
0.0
  9
$PUCSXDIR
 10
1.0
 20
0.0
 30
0.0
  9
$PUCSYDIR
 10
0.0
 20
1.0
 30
0.0
  9
$PUCSORTHOREF
  2

  9
$PUCSORTHOVIEW
 70
0
  9
$PUCSORGTOP
 10
0.0
 20
0.0
 30
0.0
  9
$PUCSORGBOTTOM
 10
0.0
 20
0.0
 30
0.0
  9
$PUCSORGLEFT
 10
0.0
 20
0.0
 30
0.0
  9
$PUCSORGRIGHT
 10
0.0
 20
0.0
 30
0.0
  9
$PUCSORGFRONT
 10
0.0
 20
0.0
 30
0.0
  9
$PUCSORGBACK
 10
0.0
 20
0.0
 30
0.0
  9
$USERI1
 70
0
  9
$USERI2
 70
0
  9
$USERI3
 70
0
  9
$USERI4
 70
0
  9
$USERI5
 70
0
  9
$USERR1
 40
0.0
  9
$USERR2
 40
0.0
  9
$USERR3
 40
0.0
  9
$USERR4
 40
0.0
  9
$USERR5
 40
0.0
  9
$WORLDVIEW
 70
1
  9
$SHADEDGE
 70
3
  9
$SHADEDIF
 70
70
  9
$TILEMODE
 70
1
  9
$MAXACTVP
 70
64
  9
$PINSBASE
 10
0.0
 20
0.0
 30
0.0
  9
$PLIMCHECK
 70
0
  9
$PEXTMIN
 10
1e+20
 20
1e+20
 30
1e+20
  9
$PEXTMAX
 10
-1e+20
 20
-1e+20
 30
-1e+20
  9
$PLIMMIN
 10
0.0
 20
0.0
  9
$PLIMMAX
 10
420.0
 20
297.0
  9
$UNITMODE
 70
0
  9
$VISRETAIN
 70
1
  9
$PLINEGEN
 70
0
  9
$PSLTSCALE
 70
1
  9
$TREEDEPTH
 70
3020
  9
$CMLSTYLE
  2
Standard
  9
$CMLJUST
 70
0
  9
$CMLSCALE
 40
20.0
  9
$PROXYGRAPHICS
 70
1
  9
$MEASUREMENT
 70
1
  9
$CELWEIGHT
370
-1
  9
$ENDCAPS
280
0
  9
$JOINSTYLE
280
0
  9
$LWDISPLAY
290
1
  9
$INSUNITS
 70
4
  9
$HYPERLINKBASE
  1

  9
$STYLESHEET
  1

  9
$XEDIT
290
1
  9
$CEPSNTYPE
380
0
  9
$PSTYLEMODE
290
1
  9
$FINGERPRINTGUID
  2
{a14938fa-9322-4a8a-99e4-04a54d1e5fd4}
  9
$VERSIONGUID
  2
{6297E3E0-CA24-451D-9B88-1E585D05ABF3}
  9
$EXTNAMES
290
1
  9
$PSVPSCALE
 40
0.0
  9
$OLESTARTUP
290
0
  0
ENDSEC
  0
SECTION
  2
CLASSES
  0
CLASS
  1
ACDBDICTIONARYWDFLT
  2
AcDbDictionaryWithDefault
  3
ObjectDBX Classes
 90
0
280
0
281
0
  0
CLASS
  1
VISUALSTYLE
  2
AcDbVisualStyle
  3
ObjectDBX Classes
 90
4095
280
0
281
0
  0
CLASS
  1
MATERIAL
  2
AcDbMaterial
  3
ObjectDBX Classes
 90
1153
280
0
281
0
  0
CLASS
  1
SCALE
  2
AcDbScale
  3
ObjectDBX Classes
 90
1153
280
0
281
0
  0
CLASS
  1
TABLESTYLE
  2
AcDbTableStyle
  3
ObjectDBX Classes
 90
4095
280
0
281
0
  0
CLASS
  1
MLEADERSTYLE
  2
AcDbMLeaderStyle
  3
ACDB_MLEADERSTYLE_CLASS
 90
4095
280
0
281
0
  0
CLASS
  1
SUN
  2
AcDbSun
  3
SCENEOE
 90
1153
280
0
281
0
  0
CLASS
  1
ACDBPLACEHOLDER
  2
AcDbPlaceHolder
  3
ObjectDBX Classes
 90
0
280
0
281
0
  0
CLASS
  1
LAYOUT
  2
AcDbLayout
  3
ObjectDBX Classes
 90
0
280
0
281
0
  0
CLASS
  1
DICTIONARYVAR
  2
AcDbDictionaryVar
  3
ObjectDBX Classes
 90
0
280
0
281
0
  0
CLASS
  1
CELLSTYLEMAP
  2
AcDbCellStyleMap
  3
ObjectDBX Classes
 90
1152
280
0
281
0
  0
CLASS
  1
MENTALRAYRENDERSETTINGS
  2
AcDbMentalRayRenderSettings
  3
SCENEOE
 90
1024
280
0
281
0
  0
CLASS
  1
ACDBDETAILVIEWSTYLE
  2
AcDbDetailViewStyle
  3
ObjectDBX Classes
 90
1025
280
0
281
0
  0
CLASS
  1
ACDBSECTIONVIEWSTYLE
  2
AcDbSectionViewStyle
  3
ObjectDBX Classes
 90
1025
280
0
281
0
  0
CLASS
  1
RASTERVARIABLES
  2
AcDbRasterVariables
  3
ISM
 90
0
280
0
281
0
  0
ENDSEC
  0
SECTION
  2
TABLES
  0
TABLE
  2
VPORT
  5
8
330
0
100
AcDbSymbolTable
 70
1
  0
VPORT
  5
29
330
8
100
AcDbSymbolTableRecord
100
AcDbViewportTableRecord
  2
*Active
 70
0
 10
0.0
 20
0.0
 11
1.0
 21
1.0
 12
105.0
 22
148.5
 13
0.0
 23
0.0
 14
10.0
 24
10.0
 15
10.0
 25
10.0
 16
0.0
 26
0.0
 36
1.0
 17
0.0
 27
0.0
 37
0.0
 40
297.0
 41
0.7070707071
 42
50.0
 43
0.0
 44
0.0
 50
0.0
 51
0.0
 71
0
 72
2000
 73
1
 74
3
 75
0
 76
0
 77
0
 78
0
281
0
 65
1
110
0.0
120
0.0
130
0.0
111
1.0
121
0.0
131
0.0
112
0.0
122
1.0
132
0.0
 79
0
146
0.0
  0
ENDTAB
  0
TABLE
  2
LTYPE
  5
5
330
0
100
AcDbSymbolTable
 70
8
  0
LTYPE
  5
14
330
5
100
AcDbSymbolTableRecord
100
AcDbLinetypeTableRecord
  2
ByBlock
 70
0
  3

 72
65
 73
0
 40
0.0
  0
LTYPE
  5
15
330
5
100
AcDbSymbolTableRecord
100
AcDbLinetypeTableRecord
  2
ByLayer
 70
0
  3

 72
65
 73
0
 40
0.0
  0
LTYPE
  5
16
330
5
100
AcDbSymbolTableRecord
100
AcDbLinetypeTableRecord
  2
Continuous
 70
0
  3
Solid line
 72
65
 73
0
 40
0.0
  0
LTYPE
  5
6E
330
5
100
AcDbSymbolTableRecord
100
AcDbLinetypeTableRecord
  2
HIDDEN
 70
0
  3
Hidden __ __ __ __ __ __ __ __ __ __ __ __ __ __
 72
65
 73
2
 40
1.905
 49
1.27
 74
0
 49
-0.635
 74
0
  0
LTYPE
  5
6F
330
5
100
AcDbSymbolTableRecord
100
AcDbLinetypeTableRecord
  2
PHANTOM
 70
0
  3
Phantom ______  __  __  ______  __  __  ______
 72
65
 73
6
 40
12.7
 49
6.35
 74
0
 49
-1.27
 74
0
 49
1.27
 74
0
 49
-1.27
 74
0
 49
1.27
 74
0
 49
-1.27
 74
0
  0
LTYPE
  5
70
330
5
100
AcDbSymbolTableRecord
100
AcDbLinetypeTableRecord
  2
CENTER
 70
0
  3
Center ____ _ ____ _ ____ _ ____ _ ____ _ ____
 72
65
 73
4
 40
10.16
 49
6.35
 74
0
 49
-1.27
 74
0
 49
1.27
 74
0
 49
-1.27
 74
0
  0
LTYPE
  5
71
330
5
100
AcDbSymbolTableRecord
100
AcDbLinetypeTableRecord
  2
CENTERX2
 70
0
  3
Center (2x) ________  __  ________  __  _____
 72
65
 73
4
 40
20.32
 49
12.7
 74
0
 49
-2.54
 74
0
 49
2.54
 74
0
 49
-2.54
 74
0
  0
LTYPE
  5
72
330
5
100
AcDbSymbolTableRecord
100
AcDbLinetypeTableRecord
  2
DOT2
 70
0
  3
Dot (.5x) ........................................
 72
65
 73
2
 40
0.635
 49
0.0
 74
0
 49
-0.635
 74
0
  0
ENDTAB
  0
TABLE
  2
LAYER
  5
2
330
0
100
AcDbSymbolTable
 70
3
  0
LAYER
  5
10
330
2
100
AcDbSymbolTableRecord
100
AcDbLayerTableRecord
  2
0
 70
0
 62
7
  6
Continuous
370
-3
390
F
  0
LAYER
  5
73
330
2
100
AcDbSymbolTableRecord
100
AcDbLayerTableRecord
  2
FORMAT
 70
0
 62
7
  6
Continuous
370
-3
390
F
  0
LAYER
  5
EA
330
2
100
AcDbSymbolTableRecord
100
AcDbLayerTableRecord
  2
Defpoints
 70
0
 62
7
  6
Continuous
290
0
370
-3
390
F
  0
ENDTAB
  0
TABLE
  2
STYLE
  5
3
330
0
100
AcDbSymbolTable
 70
2
  0
STYLE
  5
11
330
3
100
AcDbSymbolTableRecord
100
AcDbTextStyleTableRecord
  2
Standard
 70
0
 40
0.0
 41
1.0
 50
0.0
 71
0
 42
3.5
  3
txt
  4

  0
STYLE
  5
81
330
3
100
AcDbSymbolTableRecord
100
AcDbTextStyleTableRecord
  2
SLDTEXTSTYLE0
 70
0
 40
0.0
 41
0.75
 50
0.0
 71
0
 42
3.5
  3
TXT
  4

  0
ENDTAB
  0
TABLE
  2
VIEW
  5
6
330
0
100
AcDbSymbolTable
 70
0
  0
ENDTAB
  0
TABLE
  2
UCS
  5
7
330
0
100
AcDbSymbolTable
 70
0
  0
ENDTAB
  0
TABLE
  2
APPID
  5
9
330
0
100
AcDbSymbolTable
 70
3
  0
APPID
  5
12
330
9
100
AcDbSymbolTableRecord
100
AcDbRegAppTableRecord
  2
ACAD
 70
0
  0
APPID
  5
FD
330
9
100
AcDbSymbolTableRecord
100
AcDbRegAppTableRecord
  2
HATCHBACKGROUNDCOLOR
 70
0
  0
APPID
  5
FE
330
9
100
AcDbSymbolTableRecord
100
AcDbRegAppTableRecord
  2
EZDXF
 70
0
  0
ENDTAB
  0
TABLE
  2
DIMSTYLE
  5
A
330
0
100
AcDbSymbolTable
 70
5
100
AcDbDimStyleTable
  0
DIMSTYLE
105
27
330
A
100
AcDbSymbolTableRecord
100
AcDbDimStyleTableRecord
  2
ISO-25
 70
0
  3

  4

 40
1.0
 41
2.5
 42
0.625
 43
3.75
 44
1.25
 45
0.0
 46
0.0
 47
0.0
 48
0.0
140
2.5
141
2.5
142
0.0
143
0.0393700787
144
1.0
145
0.0
146
1.0
147
0.625
148
0.0
 71
0
 72
0
 73
0
 74
0
 75
0
 76
0
 77
1
 78
8
 79
3
170
0
171
3
172
1
173
0
174
0
175
0
176
0
177
0
178
0
179
2
271
2
272
2
273
2
274
3
275
0
276
0
277
2
278
44
279
0
280
0
281
0
282
0
283
0
284
8
285
0
286
0
288
0
289
3
340
11
371
-2
372
-2
  0
DIMSTYLE
105
82
102
{ACAD_REACTORS
330
80
330
8C
102
}
330
A
100
AcDbSymbolTableRecord
100
AcDbDimStyleTableRecord
  2
SLDDIMSTYLE0
 70
0
  3

  4

 40
1.0
 41
3.302
 42
0.625
 43
3.75
 44
0.0
 45
1e-09
 46
0.0
 47
0.0
 48
0.0
140
3.5
141
2.5
142
0.0
143
0.03937007874
144
1.0
145
0.0
146
1.0
147
0.875
148
0.0
 71
0
 72
0
 73
0
 74
0
 75
0
 76
0
 77
1
 78
12
 79
3
170
0
171
3
172
1
173
1
174
0
175
0
176
0
177
0
178
0
179
2
271
2
272
2
273
2
274
3
275
0
276
2
277
2
278
44
279
0
280
0
281
0
282
0
283
0
284
12
285
0
286
0
288
0
289
3
340
81
371
-2
372
-2
  0
DIMSTYLE
105
97
102
{ACAD_REACTORS
330
96
330
A3
330
AF
102
}
330
A
100
AcDbSymbolTableRecord
100
AcDbDimStyleTableRecord
  2
SLDDIMSTYLE1
 70
0
  3

  4

 40
1.0
 41
3.302
 42
0.625
 43
3.75
 44
0.0
 45
1e-09
 46
0.0
 47
0.0
 48
0.0
140
3.5
141
2.5
142
0.0
143
0.03937007874
144
1.0
145
0.0
146
1.0
147
0.875
148
0.0
 71
0
 72
0
 73
0
 74
0
 75
0
 76
0
 77
1
 78
12
 79
3
170
0
171
3
172
1
173
1
174
0
175
0
176
0
177
0
178
0
179
2
271
2
272
2
273
2
274
3
275
0
276
2
277
2
278
44
279
0
280
0
281
0
282
0
283
0
284
12
285
0
286
0
288
0
289
0
340
81
371
-2
372
-2
  0
DIMSTYLE
105
BC
102
{ACAD_REACTORS
330
BB
102
}
330
A
100
AcDbSymbolTableRecord
100
AcDbDimStyleTableRecord
  2
SLDDIMSTYLE2
 70
0
  3

  4

 40
1.0
 41
3.302
 42
0.625
 43
3.75
 44
0.0
 45
1e-09
 46
0.0
 47
0.0
 48
0.0
140
3.5
141
0.0
142
0.0
143
0.03937007874
144
1.0
145
0.0
146
1.0
147
0.875
148
0.0
 71
0
 72
0
 73
0
 74
0
 75
0
 76
0
 77
1
 78
12
 79
3
170
0
171
3
172
1
173
1
174
0
175
0
176
0
177
0
178
0
179
2
271
2
272
2
273
2
274
3
275
0
276
2
277
2
278
44
279
0
280
0
281
0
282
0
283
0
284
12
285
0
286
0
288
0
289
3
340
81
371
-2
372
-2
  0
DIMSTYLE
105
EB
330
A
100
AcDbSymbolTableRecord
100
AcDbDimStyleTableRecord
  2
Standard
 70
0
  3

  4

 40
1.0
 41
2.5
 42
0.625
 43
3.75
 44
1.25
 45
0.0
 46
0.0
 47
0.0
 48
0.0
140
2.5
141
2.5
142
0.0
143
0.03937007874
144
1.0
145
0.0
146
1.0
147
0.625
148
0.0
 71
0
 72
0
 73
0
 74
0
 75
0
 76
0
 77
1
 78
8
 79
3
170
0
171
3
172
1
173
0
174
0
175
0
176
0
177
0
178
0
179
2
271
2
272
2
273
2
274
3
275
0
276
0
277
2
278
44
279
0
280
0
281
0
282
0
283
0
284
8
285
0
286
0
288
0
289
3
371
-2
372
-2
  0
ENDTAB
  0
TABLE
  2
BLOCK_RECORD
  5
1
330
0
100
AcDbSymbolTable
 70
11
  0
BLOCK_RECORD
  5
1F
330
1
100
AcDbSymbolTableRecord
100
AcDbBlockTableRecord
  2
*Model_Space
340
22
  0
BLOCK_RECORD
  5
1B
330
1
100
AcDbSymbolTableRecord
100
AcDbBlockTableRecord
  2
*Paper_Space
340
1E
  0
BLOCK_RECORD
  5
23
330
1
100
AcDbSymbolTableRecord
100
AcDbBlockTableRecord
  2
*Paper_Space0
340
26
  0
BLOCK_RECORD
  5
83
330
1
100
AcDbSymbolTableRecord
100
AcDbBlockTableRecord
  2
_D
340
0
  0
BLOCK_RECORD
  5
8D
330
1
100
AcDbSymbolTableRecord
100
AcDbBlockTableRecord
  2
_D_1
340
0
  0
BLOCK_RECORD
  5
98
330
1
100
AcDbSymbolTableRecord
100
AcDbBlockTableRecord
  2
_D_2
340
0
  0
BLOCK_RECORD
  5
A4
330
1
100
AcDbSymbolTableRecord
100
AcDbBlockTableRecord
  2
_D_3
340
0
  0
BLOCK_RECORD
  5
B0
330
1
100
AcDbSymbolTableRecord
100
AcDbBlockTableRecord
  2
_D_4
340
0
  0
BLOCK_RECORD
  5
BD
330
1
100
AcDbSymbolTableRecord
100
AcDbBlockTableRecord
  2
_D_5
340
0
  0
BLOCK_RECORD
  5
C6
330
1
100
AcDbSymbolTableRecord
100
AcDbBlockTableRecord
  2
SW_CENTERMARKSYMBOL_0
340
0
  0
BLOCK_RECORD
  5
D2
330
1
100
AcDbSymbolTableRecord
100
AcDbBlockTableRecord
  2
SW_CENTERMARKSYMBOL_1
340
0
  0
ENDTAB
  0
ENDSEC
  0
SECTION
  2
BLOCKS
  0
BLOCK
  5
20
330
1F
100
AcDbEntity
  8
0
100
AcDbBlockBegin
  2
*Model_Space
 70
0
 10
0.0
 20
0.0
 30
0.0
  3
*Model_Space
  1

  0
ENDBLK
  5
21
330
1F
100
AcDbEntity
  8
0
100
AcDbBlockEnd
  0
BLOCK
  5
1C
330
1B
100
AcDbEntity
 67
1
  8
0
100
AcDbBlockBegin
  2
*Paper_Space
 70
0
 10
0.0
 20
0.0
 30
0.0
  3
*Paper_Space
  1

  0
ENDBLK
  5
1D
330
1B
100
AcDbEntity
 67
1
  8
0
100
AcDbBlockEnd
  0
BLOCK
  5
24
330
23
100
AcDbEntity
  8
0
100
AcDbBlockBegin
  2
*Paper_Space0
 70
0
 10
0.0
 20
0.0
 30
0.0
  3
*Paper_Space0
  1

  0
ENDBLK
  5
25
330
23
100
AcDbEntity
  8
0
100
AcDbBlockEnd
  0
BLOCK
  5
84
330
83
100
AcDbEntity
  8
0
100
AcDbBlockBegin
  2
_D
 70
0
 10
0.0
 20
0.0
 30
0.0
  3
_D
  1

  0
SOLID
  5
86
330
83
100
AcDbEntity
  8
0
  6
Continuous
 62
7
370
18
100
AcDbTrace
 10
141.5
 20
183.8666584639
 30
0.0
 11
138.198
 21
184.3746584639
 31
0.0
 12
138.198
 22
183.3586584639
 32
0.0
 13
138.198
 23
183.3586584639
 33
0.0
  0
SOLID
  5
87
330
83
100
AcDbEntity
  8
0
  6
Continuous
 62
7
370
18
100
AcDbTrace
 10
68.5
 20
183.8666584639
 30
0.0
 11
71.802
 21
183.3586584639
 31
0.0
 12
71.802
 22
184.3746584639
 32
0.0
 13
71.802
 23
184.3746584639
 33
0.0
  0
LINE
  5
88
330
83
100
AcDbEntity
  8
0
  6
Continuous
 62
7
370
0
100
AcDbLine
 10
141.5
 20
172.2316201117
 30
0.0
 11
141.5
 21
184.8666584639
 31
0.0
  0
LINE
  5
89
330
83
100
AcDbEntity
  8
0
  6
Continuous
 62
7
370
0
100
AcDbLine
 10
68.5
 20
172.2316201117
 30
0.0
 11
68.5
 21
184.8666584639
 31
0.0
  0
LINE
  5
8A
330
83
100
AcDbEntity
  8
0
  6
Continuous
 62
7
370
0
100
AcDbLine
 10
141.5
 20
183.8666584639
 30
0.0
 11
68.5
 21
183.8666584639
 31
0.0
  0
MTEXT
  5
8B
330
83
100
AcDbEntity
  8
0
  6
Continuous
 62
7
370
18
100
AcDbMText
 10
101.9220158922
 20
188.3783953785
 30
0.0
 40
3.5
 41
0.0
 71
1
  1
73
  7
SLDTEXTSTYLE0
  0
ENDBLK
  5
85
330
83
100
AcDbEntity
  8
0
100
AcDbBlockEnd
  0
BLOCK
  5
8E
330
8D
100
AcDbEntity
  8
0
100
AcDbBlockBegin
  2
_D_1
 70
0
 10
0.0
 20
0.0
 30
0.0
  3
_D_1
  1

  0
SOLID
  5
90
330
8D
100
AcDbEntity
  8
0
  6
Continuous
 62
7
370
18
100
AcDbTrace
 10
68.5
 20
176.5401472688
 30
0.0
 11
71.802
 21
176.0321472688
 31
0.0
 12
71.802
 22
177.0481472688
 32
0.0
 13
71.802
 23
177.0481472688
 33
0.0
  0
SOLID
  5
91
330
8D
100
AcDbEntity
  8
0
  6
Continuous
 62
7
370
18
100
AcDbTrace
 10
126.0
 20
176.5401472688
 30
0.0
 11
122.698
 21
177.0481472688
 31
0.0
 12
122.698
 22
176.0321472688
 32
0.0
 13
122.698
 23
176.0321472688
 33
0.0
  0
LINE
  5
92
330
8D
100
AcDbEntity
  8
0
  6
Continuous
 62
7
370
0
100
AcDbLine
 10
68.5
 20
172.2316201117
 30
0.0
 11
68.5
 21
177.5401472688
 31
0.0
  0
LINE
  5
93
330
8D
100
AcDbEntity
  8
0
  6
Continuous
 62
7
370
0
100
AcDbLine
 10
126.0
 20
164.8816201117
 30
0.0
 11
126.0
 21
177.5401472688
 31
0.0
  0
LINE
  5
94
330
8D
100
AcDbEntity
  8
0
  6
Continuous
 62
7
370
0
100
AcDbLine
 10
68.5
 20
176.5401472688
 30
0.0
 11
126.0
 21
176.5401472688
 31
0.0
  0
MTEXT
  5
95
330
8D
100
AcDbEntity
  8
0
  6
Continuous
 62
7
370
18
100
AcDbMText
 10
92.0026738706
 20
181.0518841833
 30
0.0
 40
3.5
 41
0.0
 71
1
  1
57.5
  7
SLDTEXTSTYLE0
  0
ENDBLK
  5
8F
330
8D
100
AcDbEntity
  8
0
100
AcDbBlockEnd
  0
BLOCK
  5
99
330
98
100
AcDbEntity
  8
0
100
AcDbBlockBegin
  2
_D_2
 70
0
 10
0.0
 20
0.0
 30
0.0
  3
_D_2
  1

  0
SOLID
  5
9B
330
98
100
AcDbEntity
  8
0
  6
Continuous
 62
7
370
18
100
AcDbTrace
 10
126.0
 20
176.5401472688
 30
0.0
 11
122.698
 21
177.0481472688
 31
0.0
 12
122.698
 22
176.0321472688
 32
0.0
 13
122.698
 23
176.0321472688
 33
0.0
  0
SOLID
  5
9C
330
98
100
AcDbEntity
  8
0
  6
Continuous
 62
7
370
18
100
AcDbTrace
 10
134.0
 20
176.5401472688
 30
0.0
 11
137.302
 21
176.0321472688
 31
0.0
 12
137.302
 22
177.0481472688
 32
0.0
 13
137.302
 23
177.0481472688
 33
0.0
  0
LINE
  5
9D
330
98
100
AcDbEntity
  8
0
  6
Continuous
 62
7
370
0
100
AcDbLine
 10
126.0
 20
164.8816201117
 30
0.0
 11
126.0
 21
177.5401472688
 31
0.0
  0
LINE
  5
9E
330
98
100
AcDbEntity
  8
0
  6
Continuous
 62
7
370
0
100
AcDbLine
 10
134.0
 20
172.8816201117
 30
0.0
 11
134.0
 21
177.5401472688
 31
0.0
  0
LINE
  5
9F
330
98
100
AcDbEntity
  8
0
  6
Continuous
 62
7
370
0
100
AcDbLine
 10
126.0
 20
176.5401472688
 30
0.0
 11
119.65
 21
176.5401472688
 31
0.0
  0
LINE
  5
A0
330
98
100
AcDbEntity
  8
0
  6
Continuous
 62
7
370
0
100
AcDbLine
 10
126.0
 20
176.5401472688
 30
0.0
 11
134.0
 21
176.5401472688
 31
0.0
  0
LINE
  5
A1
330
98
100
AcDbEntity
  8
0
  6
Continuous
 62
7
370
0
100
AcDbLine
 10
134.0
 20
176.5401472688
 30
0.0
 11
140.35
 21
176.5401472688
 31
0.0
  0
MTEXT
  5
A2
330
98
100
AcDbEntity
  8
0
  6
Continuous
 62
7
370
18
100
AcDbMText
 10
132.4892401762
 20
181.0518841833
 30
0.0
 40
3.5
 41
0.0
 71
1
  1
8
  7
SLDTEXTSTYLE0
  0
ENDBLK
  5
9A
330
98
100
AcDbEntity
  8
0
100
AcDbBlockEnd
  0
BLOCK
  5
A5
330
A4
100
AcDbEntity
  8
0
100
AcDbBlockBegin
  2
_D_3
 70
0
 10
0.0
 20
0.0
 30
0.0
  3
_D_3
  1

  0
SOLID
  5
A7
330
A4
100
AcDbEntity
  8
0
  6
Continuous
 62
7
370
18
100
AcDbTrace
 10
147.6712986023
 20
167.7316201117
 30
0.0
 11
148.1792986023
 21
171.0336201117
 31
0.0
 12
147.1632986023
 22
171.0336201117
 32
0.0
 13
147.1632986023
 23
171.0336201117
 33
0.0
  0
SOLID
  5
A8
330
A4
100
AcDbEntity
  8
0
  6
Continuous
 62
7
370
18
100
AcDbTrace
 10
147.6712986023
 20
159.7316201117
 30
0.0
 11
147.1632986023
 21
156.4296201117
 31
0.0
 12
148.1792986023
 22
156.4296201117
 32
0.0
 13
148.1792986023
 23
156.4296201117
 33
0.0
  0
LINE
  5
A9
330
A4
100
AcDbEntity
  8
0
  6
Continuous
 62
7
370
0
100
AcDbLine
 10
139.15
 20
167.7316201117
 30
0.0
 11
148.6712986023
 21
167.7316201117
 31
0.0
  0
LINE
  5
AA
330
A4
100
AcDbEntity
  8
0
  6
Continuous
 62
7
370
0
100
AcDbLine
 10
131.15
 20
159.7316201117
 30
0.0
 11
148.6712986023
 21
159.7316201117
 31
0.0
  0
LINE
  5
AB
330
A4
100
AcDbEntity
  8
0
  6
Continuous
 62
7
370
0
100
AcDbLine
 10
147.6712986023
 20
167.7316201117
 30
0.0
 11
147.6712986023
 21
174.0816201117
 31
0.0
  0
LINE
  5
AC
330
A4
100
AcDbEntity
  8
0
  6
Continuous
 62
7
370
0
100
AcDbLine
 10
147.6712986023
 20
167.7316201117
 30
0.0
 11
147.6712986023
 21
159.7316201117
 31
0.0
  0
LINE
  5
AD
330
A4
100
AcDbEntity
  8
0
  6
Continuous
 62
7
370
0
100
AcDbLine
 10
147.6712986023
 20
159.7316201117
 30
0.0
 11
147.6712986023
 21
153.3816201117
 31
0.0
  0
MTEXT
  5
AE
330
A4
100
AcDbEntity
  8
0
  6
Continuous
 62
7
370
18
100
AcDbMText
 10
143.1595616877
 20
163.01659277
 30
0.0
 40
3.5
 41
0.0
 71
1
  1
8
  7
SLDTEXTSTYLE0
 11
-7.044195017643634e-15
 21
1.0
 31
0.0
  0
ENDBLK
  5
A6
330
A4
100
AcDbEntity
  8
0
100
AcDbBlockEnd
  0
BLOCK
  5
B1
330
B0
100
AcDbEntity
  8
0
100
AcDbBlockBegin
  2
_D_4
 70
0
 10
0.0
 20
0.0
 30
0.0
  3
_D_4
  1

  0
SOLID
  5
B3
330
B0
100
AcDbEntity
  8
0
  6
Continuous
 62
7
370
18
100
AcDbTrace
 10
147.6712986023
 20
159.7316201117
 30
0.0
 11
148.1792986023
 21
163.0336201117
 31
0.0
 12
147.1632986023
 22
163.0336201117
 32
0.0
 13
147.1632986023
 23
163.0336201117
 33
0.0
  0
SOLID
  5
B4
330
B0
100
AcDbEntity
  8
0
  6
Continuous
 62
7
370
18
100
AcDbTrace
 10
147.6712986023
 20
156.2316201117
 30
0.0
 11
147.1632986023
 21
152.9296201117
 31
0.0
 12
148.1792986023
 22
152.9296201117
 32
0.0
 13
148.1792986023
 23
152.9296201117
 33
0.0
  0
LINE
  5
B5
330
B0
100
AcDbEntity
  8
0
  6
Continuous
 62
7
370
0
100
AcDbLine
 10
131.15
 20
159.7316201117
 30
0.0
 11
148.6712986023
 21
159.7316201117
 31
0.0
  0
LINE
  5
B6
330
B0
100
AcDbEntity
  8
0
  6
Continuous
 62
7
370
0
100
AcDbLine
 10
142.5
 20
156.2316201117
 30
0.0
 11
148.6712986023
 21
156.2316201117
 31
0.0
  0
LINE
  5
B7
330
B0
100
AcDbEntity
  8
0
  6
Continuous
 62
7
370
0
100
AcDbLine
 10
147.6712986023
 20
159.7316201117
 30
0.0
 11
147.6712986023
 21
166.0816201117
 31
0.0
  0
LINE
  5
B8
330
B0
100
AcDbEntity
  8
0
  6
Continuous
 62
7
370
0
100
AcDbLine
 10
147.6712986023
 20
159.7316201117
 30
0.0
 11
147.6712986023
 21
156.2316201117
 31
0.0
  0
LINE
  5
B9
330
B0
100
AcDbEntity
  8
0
  6
Continuous
 62
7
370
0
100
AcDbLine
 10
147.6712986023
 20
156.2316201117
 30
0.0
 11
147.6712986023
 21
147.027931699
 31
0.0
  0
MTEXT
  5
BA
330
B0
100
AcDbEntity
  8
0
  6
Continuous
 62
7
370
18
100
AcDbMText
 10
143.1595616877
 20
147.027931699
 30
0.0
 40
3.5
 41
0.0
 71
1
  1
3.5
  7
SLDTEXTSTYLE0
 11
-7.044195017643634e-15
 21
1.0
 31
0.0
  0
ENDBLK
  5
B2
330
B0
100
AcDbEntity
  8
0
100
AcDbBlockEnd
  0
BLOCK
  5
BE
330
BD
100
AcDbEntity
  8
0
100
AcDbBlockBegin
  2
_D_5
 70
0
 10
0.0
 20
0.0
 30
0.0
  3
_D_5
  1

  0
SOLID
  5
C0
330
BD
100
AcDbEntity
  8
0
  6
Continuous
 62
7
370
18
100
AcDbTrace
 10
125.6298723239
 20
158.1236693963
 30
0.0
 11
124.3941144149
 21
155.0197733944
 31
0.0
 12
125.3842222494
 22
154.7918644739
 32
0.0
 13
125.3842222494
 23
154.7918644739
 33
0.0
  0
LINE
  5
C1
330
BD
100
AcDbEntity
  8
0
  6
Continuous
 62
7
370
0
100
AcDbLine
 10
125.6298723239
 20
158.1236693963
 30
0.0
 11
122.2766399692
 21
143.5561763055
 31
0.0
  0
LINE
  5
C2
330
BD
100
AcDbEntity
  8
0
  6
Continuous
 62
7
370
0
100
AcDbLine
 10
126.0
 20
159.7316201117
 30
0.0
 11
125.6298723239
 21
158.1236693963
 31
0.0
  0
LINE
  5
C3
330
BD
100
AcDbEntity
  8
0
  6
Continuous
 62
7
370
0
100
AcDbLine
 10
122.2766399692
 20
143.5561763055
 30
0.0
 11
104.5162224095
 21
143.5561763055
 31
0.0
  0
MTEXT
  5
C4
330
BD
100
AcDbEntity
  8
0
  6
Continuous
 62
7
370
18
100
AcDbMText
 10
104.5162224095
 20
148.0679132201
 30
0.0
 40
3.5
 41
0.0
 71
1
  1
RM
  7
SLDTEXTSTYLE0
  0
MTEXT
  5
C5
330
BD
100
AcDbEntity
  8
0
  6
Continuous
 62
7
370
18
100
AcDbMText
 10
111.637749977
 20
148.0679132201
 30
0.0
 40
3.5
 41
0.0
 71
1
  1
1.65
  7
SLDTEXTSTYLE0
  0
ENDBLK
  5
BF
330
BD
100
AcDbEntity
  8
0
100
AcDbBlockEnd
  0
BLOCK
  5
C7
330
C6
100
AcDbEntity
  8
0
100
AcDbBlockBegin
  2
SW_CENTERMARKSYMBOL_0
 70
0
 10
0.0
 20
0.0
 30
0.0
  3
SW_CENTERMARKSYMBOL_0
  1

  0
LINE
  5
C9
330
C6
100
AcDbEntity
  8
0
  6
Continuous
 62
0
370
18
100
AcDbLine
 10
0.0
 20
0.0
 30
0.0
 11
0.0
 21
2.5
 31
0.0
  0
LINE
  5
CA
330
C6
100
AcDbEntity
  8
0
  6
Continuous
 62
0
370
18
100
AcDbLine
 10
0.0
 20
0.0
 30
0.0
 11
-2.5
 21
0.0
 31
0.0
  0
LINE
  5
CB
330
C6
100
AcDbEntity
  8
0
  6
Continuous
 62
0
370
18
100
AcDbLine
 10
0.0
 20
0.0
 30
0.0
 11
0.0
 21
-2.5
 31
0.0
  0
LINE
  5
CC
330
C6
100
AcDbEntity
  8
0
  6
Continuous
 62
0
370
18
100
AcDbLine
 10
0.0
 20
0.0
 30
0.0
 11
2.5
 21
0.0
 31
0.0
  0
LINE
  5
CD
330
C6
100
AcDbEntity
  8
0
  6
Continuous
 62
0
370
18
100
AcDbLine
 10
0.0
 20
2.5
 30
0.0
 11
0.0
 21
4.15
 31
0.0
  0
LINE
  5
CE
330
C6
100
AcDbEntity
  8
0
  6
Continuous
 62
0
370
18
100
AcDbLine
 10
-2.5
 20
0.0
 30
0.0
 11
-4.15
 21
0.0
 31
0.0
  0
LINE
  5
CF
330
C6
100
AcDbEntity
  8
0
  6
Continuous
 62
0
370
18
100
AcDbLine
 10
0.0
 20
-2.5
 30
0.0
 11
0.0
 21
-4.15
 31
0.0
  0
LINE
  5
D0
330
C6
100
AcDbEntity
  8
0
  6
Continuous
 62
0
370
18
100
AcDbLine
 10
2.5
 20
0.0
 30
0.0
 11
4.15
 21
0.0
 31
0.0
  0
ENDBLK
  5
C8
330
C6
100
AcDbEntity
  8
0
100
AcDbBlockEnd
  0
BLOCK
  5
D3
330
D2
100
AcDbEntity
  8
0
100
AcDbBlockBegin
  2
SW_CENTERMARKSYMBOL_1
 70
0
 10
0.0
 20
0.0
 30
0.0
  3
SW_CENTERMARKSYMBOL_1
  1

  0
LINE
  5
D5
330
D2
100
AcDbEntity
  8
0
  6
Continuous
 62
0
370
18
100
AcDbLine
 10
0.0
 20
0.0
 30
0.0
 11
0.0
 21
2.5
 31
0.0
  0
LINE
  5
D6
330
D2
100
AcDbEntity
  8
0
  6
Continuous
 62
0
370
18
100
AcDbLine
 10
0.0
 20
0.0
 30
0.0
 11
-2.5
 21
0.0
 31
0.0
  0
LINE
  5
D7
330
D2
100
AcDbEntity
  8
0
  6
Continuous
 62
0
370
18
100
AcDbLine
 10
0.0
 20
0.0
 30
0.0
 11
0.0
 21
-2.5
 31
0.0
  0
LINE
  5
D8
330
D2
100
AcDbEntity
  8
0
  6
Continuous
 62
0
370
18
100
AcDbLine
 10
0.0
 20
0.0
 30
0.0
 11
2.5
 21
0.0
 31
0.0
  0
LINE
  5
D9
330
D2
100
AcDbEntity
  8
0
  6
Continuous
 62
0
370
18
100
AcDbLine
 10
0.0
 20
2.5
 30
0.0
 11
0.0
 21
4.15
 31
0.0
  0
LINE
  5
DA
330
D2
100
AcDbEntity
  8
0
  6
Continuous
 62
0
370
18
100
AcDbLine
 10
-2.5
 20
0.0
 30
0.0
 11
-4.15
 21
0.0
 31
0.0
  0
LINE
  5
DB
330
D2
100
AcDbEntity
  8
0
  6
Continuous
 62
0
370
18
100
AcDbLine
 10
0.0
 20
-2.5
 30
0.0
 11
0.0
 21
-4.15
 31
0.0
  0
LINE
  5
DC
330
D2
100
AcDbEntity
  8
0
  6
Continuous
 62
0
370
18
100
AcDbLine
 10
2.5
 20
0.0
 30
0.0
 11
4.15
 21
0.0
 31
0.0
  0
ENDBLK
  5
D4
330
D2
100
AcDbEntity
  8
0
100
AcDbBlockEnd
  0
ENDSEC
  0
SECTION
  2
ENTITIES
  0
CIRCLE
  5
74
330
1F
100
AcDbEntity
  8
0
  6
Continuous
 62
7
370
25
100
AcDbCircle
 10
134.0
 20
167.7316201117
 30
0.0
 40
1.649999999999977
  0
CIRCLE
  5
75
330
1F
100
AcDbEntity
  8
0
  6
Continuous
 62
7
370
25
100
AcDbCircle
 10
126.0
 20
159.7316201117
 30
0.0
 40
1.649999999999977
  0
LINE
  5
76
330
1F
100
AcDbEntity
  8
0
  6
Continuous
 62
7
370
25
100
AcDbLine
 10
68.5
 20
156.2316201117
 30
0.0
 11
141.5
 21
156.2316201117
 31
0.0
  0
LINE
  5
77
330
1F
100
AcDbEntity
  8
0
  6
Continuous
 62
7
370
25
100
AcDbLine
 10
68.5
 20
171.2316201117
 30
0.0
 11
68.5
 21
156.2316201117
 31
0.0
  0
LINE
  5
78
330
1F
100
AcDbEntity
  8
0
  6
Continuous
 62
7
370
25
100
AcDbLine
 10
141.5
 20
171.2316201117
 30
0.0
 11
68.5
 21
171.2316201117
 31
0.0
  0
LINE
  5
79
330
1F
100
AcDbEntity
  8
0
  6
Continuous
 62
7
370
25
100
AcDbLine
 10
141.5
 20
156.2316201117
 30
0.0
 11
141.5
 21
171.2316201117
 31
0.0
  0
CIRCLE
  5
7A
330
1F
100
AcDbEntity
  8
0
  6
HIDDEN
 62
7
370
18
100
AcDbCircle
 10
134.0
 20
167.7316201117
 30
0.0
 40
1.649999999999977
  0
CIRCLE
  5
7B
330
1F
100
AcDbEntity
  8
0
  6
HIDDEN
 62
7
370
18
100
AcDbCircle
 10
126.0
 20
159.7316201117
 30
0.0
 40
1.649999999999963
  0
LINE
  5
7C
330
1F
100
AcDbEntity
  8
0
  6
HIDDEN
 62
7
370
18
100
AcDbLine
 10
68.5
 20
156.2316201117
 30
0.0
 11
141.5
 21
156.2316201117
 31
0.0
  0
LINE
  5
7D
330
1F
100
AcDbEntity
  8
0
  6
HIDDEN
 62
7
370
18
100
AcDbLine
 10
68.5
 20
171.2316201117
 30
0.0
 11
68.5
 21
156.2316201117
 31
0.0
  0
LINE
  5
7E
330
1F
100
AcDbEntity
  8
0
  6
HIDDEN
 62
7
370
18
100
AcDbLine
 10
141.5
 20
171.2316201117
 30
0.0
 11
68.5
 21
171.2316201117
 31
0.0
  0
LINE
  5
7F
330
1F
100
AcDbEntity
  8
0
  6
HIDDEN
 62
7
370
18
100
AcDbLine
 10
141.5
 20
156.2316201117
 30
0.0
 11
141.5
 21
171.2316201117
 31
0.0
  0
DIMENSION
  5
80
330
1F
100
AcDbEntity
  8
0
  6
Continuous
 62
7
370
18
100
AcDbDimension
  2
_D
  3
SLDDIMSTYLE0
 10
68.5
 20
183.8666584639
 30
0.0
 11
104.5081270857
 21
183.8666584639
 31
0.0
 70
160
 71
2
 42
-1.0
  1
<>
100
AcDbAlignedDimension
 13
141.5
 23
171.2316201117
 33
0.0
 14
68.5
 24
171.2316201117
 34
0.0
 50
0.0
100
AcDbRotatedDimension
  0
DIMENSION
  5
8C
330
1F
100
AcDbEntity
  8
0
  6
Continuous
 62
7
370
18
100
AcDbDimension
  2
_D_1
  3
SLDDIMSTYLE0
 10
126.0
 20
176.5401472688
 30
0.0
 11
96.528368401
 21
176.5401472688
 31
0.0
 70
160
 71
2
 42
-1.0
  1
<>
100
AcDbAlignedDimension
 13
68.5
 23
171.2316201117
 33
0.0
 14
126.0
 24
163.8816201117
 34
0.0
 50
0.0
100
AcDbRotatedDimension
  0
DIMENSION
  5
96
330
1F
100
AcDbEntity
  8
0
  6
Continuous
 62
7
370
18
100
AcDbDimension
  2
_D_2
  3
SLDDIMSTYLE1
 10
134.0
 20
176.5401472688
 30
0.0
 11
133.782295773
 21
176.5401472688
 31
0.0
 70
160
 71
2
 42
-1.0
  1
<>
100
AcDbAlignedDimension
 13
126.0
 23
163.8816201117
 33
0.0
 14
134.0
 24
171.8816201117
 34
0.0
 50
0.0
100
AcDbRotatedDimension
  0
DIMENSION
  5
A3
330
1F
100
AcDbEntity
  8
0
  6
Continuous
 62
7
370
18
100
AcDbDimension
  2
_D_3
  3
SLDDIMSTYLE1
 10
147.6712986023
 20
159.7316201117
 30
0.0
 11
147.6712986023
 21
164.3096483668
 31
0.0
 70
160
 71
2
 42
-1.0
  1
<>
100
AcDbAlignedDimension
 13
138.15
 23
167.7316201117
 33
0.0
 14
130.15
 24
159.7316201117
 34
0.0
 50
90.0
100
AcDbRotatedDimension
  0
DIMENSION
  5
AF
330
1F
100
AcDbEntity
  8
0
  6
Continuous
 62
7
370
18
100
AcDbDimension
  2
_D_4
  3
SLDDIMSTYLE1
 10
147.6712986023
 20
156.2316201117
 30
0.0
 11
147.6712986023
 21
150.2605705163
 31
0.0
 70
160
 71
2
 42
-1.0
  1
<>
100
AcDbAlignedDimension
 13
130.15
 23
159.7316201117
 33
0.0
 14
141.5
 24
156.2316201117
 34
0.0
 50
90.0
100
AcDbRotatedDimension
  0
DIMENSION
  5
BB
330
1F
100
AcDbEntity
  8
0
  6
Continuous
 62
7
370
18
100
AcDbDimension
  2
_D_5
  3
SLDDIMSTYLE2
 10
126.0
 20
159.7316201117
 30
0.0
 11
112.6026811893
 21
146.3343013011
 31
0.0
 70
164
 71
1
 42
-1.0
  1
RM<>
100
AcDbRadialDimension
 15
125.6298723239
 25
158.1236693963
 35
0.0
 40
0.0
  0
INSERT
  5
D1
330
1F
100
AcDbEntity
  8
0
  6
Continuous
 62
7
370
0
100
AcDbBlockReference
  2
SW_CENTERMARKSYMBOL_0
 10
134.0
 20
167.7316201117
 30
0.0
  0
INSERT
  5
DD
330
1F
100
AcDbEntity
  8
0
  6
Continuous
 62
7
370
0
100
AcDbBlockReference
  2
SW_CENTERMARKSYMBOL_1
 10
126.0
 20
159.7316201117
 30
0.0
  0
ARC
  5
DE
330
1F
100
AcDbEntity
  8
0
  6
Continuous
 62
7
370
18
100
AcDbCircle
 10
134.0
 20
167.7316201117
 30
0.0
 40
1.999999999999999
100
AcDbArc
 50
255.0
 51
195.0
  0
ARC
  5
DF
330
1F
100
AcDbEntity
  8
0
  6
Continuous
 62
7
370
18
100
AcDbCircle
 10
126.0
 20
159.7316201117
 30
0.0
 40
2.000000000000026
100
AcDbArc
 50
255.0
 51
195.0
  0
LINE
  5
ED
330
1F
100
AcDbEntity
  8
WATERMARK
100
AcDbLine
 10
68.82260101010101
 20
156.1816201117
 30
0.0
 11
68.82260101010101
 21
156.28162011170002
 31
0.0
  0
LINE
  5
EE
330
1F
100
AcDbEntity
  8
WATERMARK
100
AcDbLine
 10
74.21464646464646
 20
156.1816201117
 30
0.0
 11
74.21464646464646
 21
156.28162011170002
 31
0.0
  0
LINE
  5
EF
330
1F
100
AcDbEntity
  8
WATERMARK
100
AcDbLine
 10
77.94760101010101
 20
156.1816201117
 30
0.0
 11
77.94760101010101
 21
156.28162011170002
 31
0.0
  0
LINE
  5
F0
330
1F
100
AcDbEntity
  8
WATERMARK
100
AcDbLine
 10
83.33964646464646
 20
156.1816201117
 30
0.0
 11
83.33964646464646
 21
156.28162011170002
 31
0.0
  0
LINE
  5
F1
330
1F
100
AcDbEntity
  8
WATERMARK
100
AcDbLine
 10
87.07260101010101
 20
156.1816201117
 30
0.0
 11
87.07260101010101
 21
156.28162011170002
 31
0.0
  0
LINE
  5
F2
330
1F
100
AcDbEntity
  8
WATERMARK
100
AcDbLine
 10
92.46464646464646
 20
156.1816201117
 30
0.0
 11
92.46464646464646
 21
156.28162011170002
 31
0.0
  0
LINE
  5
F3
330
1F
100
AcDbEntity
  8
WATERMARK
100
AcDbLine
 10
96.19760101010101
 20
156.1816201117
 30
0.0
 11
96.19760101010101
 21
156.28162011170002
 31
0.0
  0
LINE
  5
F4
330
1F
100
AcDbEntity
  8
WATERMARK
100
AcDbLine
 10
101.58964646464646
 20
156.1816201117
 30
0.0
 11
101.58964646464646
 21
156.28162011170002
 31
0.0
  0
LINE
  5
F5
330
1F
100
AcDbEntity
  8
WATERMARK
100
AcDbLine
 10
106.15214646464646
 20
156.1816201117
 30
0.0
 11
106.15214646464646
 21
156.28162011170002
 31
0.0
  0
LINE
  5
F6
330
1F
100
AcDbEntity
  8
WATERMARK
100
AcDbLine
 10
109.88510101010101
 20
156.1816201117
 30
0.0
 11
109.88510101010101
 21
156.28162011170002
 31
0.0
  0
LINE
  5
F7
330
1F
100
AcDbEntity
  8
WATERMARK
100
AcDbLine
 10
115.27714646464646
 20
156.1816201117
 30
0.0
 11
115.27714646464646
 21
156.28162011170002
 31
0.0
  0
LINE
  5
F8
330
1F
100
AcDbEntity
  8
WATERMARK
100
AcDbLine
 10
119.01010101010101
 20
156.1816201117
 30
0.0
 11
119.01010101010101
 21
156.28162011170002
 31
0.0
  0
LINE
  5
F9
330
1F
100
AcDbEntity
  8
WATERMARK
100
AcDbLine
 10
124.40214646464646
 20
156.1816201117
 30
0.0
 11
124.40214646464646
 21
156.28162011170002
 31
0.0
  0
LINE
  5
FA
330
1F
100
AcDbEntity
  8
WATERMARK
100
AcDbLine
 10
128.135101010101
 20
156.1816201117
 30
0.0
 11
128.135101010101
 21
156.28162011170002
 31
0.0
  0
LINE
  5
FB
330
1F
100
AcDbEntity
  8
WATERMARK
100
AcDbLine
 10
133.52714646464648
 20
156.1816201117
 30
0.0
 11
133.52714646464648
 21
156.28162011170002
 31
0.0
  0
LINE
  5
FC
330
1F
100
AcDbEntity
  8
WATERMARK
100
AcDbLine
 10
137.260101010101
 20
156.1816201117
 30
0.0
 11
137.260101010101
 21
156.28162011170002
 31
0.0
  0
ENDSEC
  0
SECTION
  2
OBJECTS
  0
DICTIONARY
  5
C
330
0
100
AcDbDictionary
281
1
  3
ACAD_GROUP
350
D
  3
ACAD_LAYOUT
350
1A
  3
ACAD_MLINESTYLE
350
17
  3
ACAD_PLOTSETTINGS
350
19
  3
ACAD_PLOTSTYLENAME
350
E
  3
ACAD_SCALELIST
350
47
  3
ACAD_COLOR
350
E2
  3
ACAD_MATERIAL
350
E3
  3
ACAD_MLEADERSTYLE
350
E4
  3
ACAD_TABLESTYLE
350
E5
  3
ACAD_VISUALSTYLE
350
E6
  3
EZDXF_META
350
FF
  0
DICTIONARY
  5
D
102
{ACAD_REACTORS
330
C
102
}
330
C
100
AcDbDictionary
281
1
  0
DICTIONARY
  5
1A
102
{ACAD_REACTORS
330
C
102
}
330
C
100
AcDbDictionary
281
1
  3
Layout1
350
1E
  3
Layout2
350
26
  3
Model
350
22
  0
DICTIONARY
  5
17
102
{ACAD_REACTORS
330
C
102
}
330
C
100
AcDbDictionary
281
1
  3
Standard
350
18
  0
DICTIONARY
  5
19
102
{ACAD_REACTORS
330
C
102
}
330
C
100
AcDbDictionary
281
1
  0
ACDBDICTIONARYWDFLT
  5
E
102
{ACAD_REACTORS
330
C
102
}
330
C
100
AcDbDictionary
281
1
  3
Normal
350
F
100
AcDbDictionaryWithDefault
340
F
  0
DICTIONARY
  5
47
102
{ACAD_REACTORS
330
C
102
}
330
C
100
AcDbDictionary
281
1
  3
A0
350
48
  3
A1
350
49
  3
A2
350
4A
  3
A3
350
4B
  3
A4
350
4C
  3
A5
350
4D
  3
A6
350
4E
  3
A7
350
4F
  3
A8
350
50
  3
A9
350
51
  3
B0
350
52
  3
B1
350
53
  3
B2
350
54
  3
B3
350
55
  3
B4
350
56
  3
B5
350
57
  3
B6
350
58
  3
B7
350
59
  3
B8
350
5A
  3
B9
350
5B
  3
C0
350
5C
  3
C1
350
5D
  3
C2
350
5E
  3
C3
350
5F
  3
C4
350
60
  3
C5
350
61
  3
C6
350
62
  3
C7
350
63
  3
C8
350
64
  3
C9
350
65
  3
D0
350
66
  3
D1
350
67
  3
D2
350
68
  0
LAYOUT
  5
1E
102
{ACAD_REACTORS
330
1A
102
}
330
1A
100
AcDbPlotSettings
  1

  2
none_device
  4

  6

 40
0.0
 41
0.0
 42
0.0
 43
0.0
 44
0.0
 45
0.0
 46
0.0
 47
0.0
 48
0.0
 49
0.0
140
0.0
141
0.0
142
1.0
143
1.0
 70
688
 72
1
 73
0
 74
5
  7

 75
16
 76
0
 77
2
 78
300
147
1.0
148
0.0
149
0.0
100
AcDbLayout
  1
Layout1
 70
1
 71
1
 10
0.0
 20
0.0
 11
420.0
 21
297.0
 12
0.0
 22
0.0
 32
0.0
 14
1e+20
 24
1e+20
 34
1e+20
 15
-1e+20
 25
-1e+20
 35
-1e+20
146
0.0
 13
0.0
 23
0.0
 33
0.0
 16
1.0
 26
0.0
 36
0.0
 17
0.0
 27
1.0
 37
0.0
 76
0
330
1B
  0
LAYOUT
  5
26
102
{ACAD_REACTORS
330
1A
102
}
330
1A
100
AcDbPlotSettings
  1

  2
none_device
  4

  6

 40
0.0
 41
0.0
 42
0.0
 43
0.0
 44
0.0
 45
0.0
 46
0.0
 47
0.0
 48
0.0
 49
0.0
140
0.0
141
0.0
142
1.0
143
1.0
 70
688
 72
1
 73
0
 74
5
  7

 75
16
 76
0
 77
2
 78
300
147
1.0
148
0.0
149
0.0
100
AcDbLayout
  1
Layout2
 70
1
 71
2
 10
0.0
 20
0.0
 11
0.0
 21
0.0
 12
0.0
 22
0.0
 32
0.0
 14
0.0
 24
0.0
 34
0.0
 15
0.0
 25
0.0
 35
0.0
146
0.0
 13
0.0
 23
0.0
 33
0.0
 16
1.0
 26
0.0
 36
0.0
 17
0.0
 27
1.0
 37
0.0
 76
0
330
23
  0
LAYOUT
  5
22
102
{ACAD_REACTORS
330
1A
102
}
330
1A
100
AcDbPlotSettings
  1

  2
none_device
  4
Letter_(8.50_x_11.00_Inches)
  6

 40
6.35
 41
6.35
 42
6.35000508
 43
6.35000508
 44
215.9
 45
279.4
 46
0.0
 47
0.0
 48
0.0
 49
0.0
140
0.0
141
0.0
142
1.0
143
1.0
 70
1712
 72
1
 73
0
 74
0
  7

 75
0
 76
0
 77
2
 78
300
147
1.0
148
0.0
149
0.0
100
AcDbLayout
  1
Model
 70
1
 71
0
 10
0.0
 20
0.0
 11
210.0
 21
297.0
 12
0.0
 22
0.0
 32
0.0
 14
0.0
 24
0.0
 34
0.0
 15
210.0
 25
297.0
 35
0.0
146
0.0
 13
0.0
 23
0.0
 33
0.0
 16
1.0
 26
0.0
 36
0.0
 17
0.0
 27
1.0
 37
0.0
 76
0
330
1F
331
29
  0
MLINESTYLE
  5
18
102
{ACAD_REACTORS
330
17
102
}
330
17
100
AcDbMlineStyle
  2
Standard
 70
0
  3

 62
256
 51
90.0
 52
90.0
 71
2
 49
0.5
 62
256
  6
BYLAYER
 49
-0.5
 62
256
  6
BYLAYER
  0
ACDBPLACEHOLDER
  5
F
102
{ACAD_REACTORS
330
E
102
}
330
E
  0
SCALE
  5
48
102
{ACAD_REACTORS
330
47
102
}
330
47
100
AcDbScale
 70
0
300
1:1
140
1.0
141
1.0
290
1
  0
SCALE
  5
49
102
{ACAD_REACTORS
330
47
102
}
330
47
100
AcDbScale
 70
0
300
1:2
140
1.0
141
2.0
290
0
  0
SCALE
  5
4A
102
{ACAD_REACTORS
330
47
102
}
330
47
100
AcDbScale
 70
0
300
1:4
140
1.0
141
4.0
290
0
  0
SCALE
  5
4B
102
{ACAD_REACTORS
330
47
102
}
330
47
100
AcDbScale
 70
0
300
1:5
140
1.0
141
5.0
290
0
  0
SCALE
  5
4C
102
{ACAD_REACTORS
330
47
102
}
330
47
100
AcDbScale
 70
0
300
1:8
140
1.0
141
8.0
290
0
  0
SCALE
  5
4D
102
{ACAD_REACTORS
330
47
102
}
330
47
100
AcDbScale
 70
0
300
1:10
140
1.0
141
10.0
290
0
  0
SCALE
  5
4E
102
{ACAD_REACTORS
330
47
102
}
330
47
100
AcDbScale
 70
0
300
1:16
140
1.0
141
16.0
290
0
  0
SCALE
  5
4F
102
{ACAD_REACTORS
330
47
102
}
330
47
100
AcDbScale
 70
0
300
1:20
140
1.0
141
20.0
290
0
  0
SCALE
  5
50
102
{ACAD_REACTORS
330
47
102
}
330
47
100
AcDbScale
 70
0
300
1:30
140
1.0
141
30.0
290
0
  0
SCALE
  5
51
102
{ACAD_REACTORS
330
47
102
}
330
47
100
AcDbScale
 70
0
300
1:40
140
1.0
141
40.0
290
0
  0
SCALE
  5
52
102
{ACAD_REACTORS
330
47
102
}
330
47
100
AcDbScale
 70
0
300
1:50
140
1.0
141
50.0
290
0
  0
SCALE
  5
53
102
{ACAD_REACTORS
330
47
102
}
330
47
100
AcDbScale
 70
0
300
1:100
140
1.0
141
100.0
290
0
  0
SCALE
  5
54
102
{ACAD_REACTORS
330
47
102
}
330
47
100
AcDbScale
 70
0
300
2:1
140
2.0
141
1.0
290
0
  0
SCALE
  5
55
102
{ACAD_REACTORS
330
47
102
}
330
47
100
AcDbScale
 70
0
300
4:1
140
4.0
141
1.0
290
0
  0
SCALE
  5
56
102
{ACAD_REACTORS
330
47
102
}
330
47
100
AcDbScale
 70
0
300
8:1
140
8.0
141
1.0
290
0
  0
SCALE
  5
57
102
{ACAD_REACTORS
330
47
102
}
330
47
100
AcDbScale
 70
0
300
10:1
140
10.0
141
1.0
290
0
  0
SCALE
  5
58
102
{ACAD_REACTORS
330
47
102
}
330
47
100
AcDbScale
 70
0
300
100:1
140
100.0
141
1.0
290
0
  0
SCALE
  5
59
102
{ACAD_REACTORS
330
47
102
}
330
47
100
AcDbScale
 70
0
300
1/128" = 1'-0"
140
0.0078125
141
12.0
290
0
  0
SCALE
  5
5A
102
{ACAD_REACTORS
330
47
102
}
330
47
100
AcDbScale
 70
0
300
1/64" = 1'-0"
140
0.015625
141
12.0
290
0
  0
SCALE
  5
5B
102
{ACAD_REACTORS
330
47
102
}
330
47
100
AcDbScale
 70
0
300
1/32" = 1'-0"
140
0.03125
141
12.0
290
0
  0
SCALE
  5
5C
102
{ACAD_REACTORS
330
47
102
}
330
47
100
AcDbScale
 70
0
300
1/16" = 1'-0"
140
0.0625
141
12.0
290
0
  0
SCALE
  5
5D
102
{ACAD_REACTORS
330
47
102
}
330
47
100
AcDbScale
 70
0
300
3/32" = 1'-0"
140
0.09375
141
12.0
290
0
  0
SCALE
  5
5E
102
{ACAD_REACTORS
330
47
102
}
330
47
100
AcDbScale
 70
0
300
1/8" = 1'-0"
140
0.125
141
12.0
290
0
  0
SCALE
  5
5F
102
{ACAD_REACTORS
330
47
102
}
330
47
100
AcDbScale
 70
0
300
3/16" = 1'-0"
140
0.1875
141
12.0
290
0
  0
SCALE
  5
60
102
{ACAD_REACTORS
330
47
102
}
330
47
100
AcDbScale
 70
0
300
1/4" = 1'-0"
140
0.25
141
12.0
290
0
  0
SCALE
  5
61
102
{ACAD_REACTORS
330
47
102
}
330
47
100
AcDbScale
 70
0
300
3/8" = 1'-0"
140
0.375
141
12.0
290
0
  0
SCALE
  5
62
102
{ACAD_REACTORS
330
47
102
}
330
47
100
AcDbScale
 70
0
300
1/2" = 1'-0"
140
0.5
141
12.0
290
0
  0
SCALE
  5
63
102
{ACAD_REACTORS
330
47
102
}
330
47
100
AcDbScale
 70
0
300
3/4" = 1'-0"
140
0.75
141
12.0
290
0
  0
SCALE
  5
64
102
{ACAD_REACTORS
330
47
102
}
330
47
100
AcDbScale
 70
0
300
1" = 1'-0"
140
1.0
141
12.0
290
0
  0
SCALE
  5
65
102
{ACAD_REACTORS
330
47
102
}
330
47
100
AcDbScale
 70
0
300
1-1/2" = 1'-0"
140
1.5
141
12.0
290
0
  0
SCALE
  5
66
102
{ACAD_REACTORS
330
47
102
}
330
47
100
AcDbScale
 70
0
300
3" = 1'-0"
140
3.0
141
12.0
290
0
  0
SCALE
  5
67
102
{ACAD_REACTORS
330
47
102
}
330
47
100
AcDbScale
 70
0
300
6" = 1'-0"
140
6.0
141
12.0
290
0
  0
SCALE
  5
68
102
{ACAD_REACTORS
330
47
102
}
330
47
100
AcDbScale
 70
0
300
1'-0" = 1'-0"
140
12.0
141
12.0
290
0
  0
DICTIONARY
  5
E2
330
C
100
AcDbDictionary
280
0
281
1
  0
DICTIONARY
  5
E3
330
C
100
AcDbDictionary
280
0
281
1
  3
ByBlock
350
E7
  3
ByLayer
350
E8
  3
Global
350
E9
  0
DICTIONARY
  5
E4
330
C
100
AcDbDictionary
280
0
281
1
  3
Standard
350
EC
  0
DICTIONARY
  5
E5
330
C
100
AcDbDictionary
280
0
281
1
  0
DICTIONARY
  5
E6
330
C
100
AcDbDictionary
280
0
281
1
  0
MATERIAL
  5
E7
102
{ACAD_REACTORS
330
E3
102
}
330
E3
100
AcDbMaterial
  1
ByBlock
  2

 70
0
 40
1.0
 71
1
 41
1.0
 91
-1023410177
 42
1.0
 72
1
  3

 73
1
 74
1
 75
1
 44
0.5
 73
0
 45
1.0
 46
1.0
 77
1
  4

 78
1
 79
1
170
1
 48
1.0
171
1
  6

172
1
173
1
174
1
140
1.0
141
1.0
175
1
  7

176
1
177
1
178
1
143
1.0
179
1
  8

270
1
271
1
272
1
145
1.0
146
1.0
273
1
  9

274
1
275
1
276
1
 42
1.0
 72
1
  3

 73
1
 74
1
 75
1
 94
63
  0
MATERIAL
  5
E8
102
{ACAD_REACTORS
330
E3
102
}
330
E3
100
AcDbMaterial
  1
ByLayer
  2

 70
0
 40
1.0
 71
1
 41
1.0
 91
-1023410177
 42
1.0
 72
1
  3

 73
1
 74
1
 75
1
 44
0.5
 73
0
 45
1.0
 46
1.0
 77
1
  4

 78
1
 79
1
170
1
 48
1.0
171
1
  6

172
1
173
1
174
1
140
1.0
141
1.0
175
1
  7

176
1
177
1
178
1
143
1.0
179
1
  8

270
1
271
1
272
1
145
1.0
146
1.0
273
1
  9

274
1
275
1
276
1
 42
1.0
 72
1
  3

 73
1
 74
1
 75
1
 94
63
  0
MATERIAL
  5
E9
102
{ACAD_REACTORS
330
E3
102
}
330
E3
100
AcDbMaterial
  1
Global
  2

 70
0
 40
1.0
 71
1
 41
1.0
 91
-1023410177
 42
1.0
 72
1
  3

 73
1
 74
1
 75
1
 44
0.5
 73
0
 45
1.0
 46
1.0
 77
1
  4

 78
1
 79
1
170
1
 48
1.0
171
1
  6

172
1
173
1
174
1
140
1.0
141
1.0
175
1
  7

176
1
177
1
178
1
143
1.0
179
1
  8

270
1
271
1
272
1
145
1.0
146
1.0
273
1
  9

274
1
275
1
276
1
 42
1.0
 72
1
  3

 73
1
 74
1
 75
1
 94
63
  0
MLEADERSTYLE
  5
EC
102
{ACAD_REACTORS
330
E4
102
}
330
E4
100
AcDbMLeaderStyle
179
2
170
2
171
1
172
0
 90
2
 40
0.0
 41
0.0
173
1
 91
-1056964608
 92
-2
290
1
 42
2.0
291
1
 43
8.0
  3
Standard
 44
4.0
300

342
11
174
1
175
1
176
0
178
1
 93
-1056964608
 45
4.0
292
0
297
0
 46
4.0
 94
-1056964608
 47
1.0
 49
1.0
140
1.0
294
1
141
0.0
177
0
142
1.0
295
0
296
0
143
3.75
271
0
272
9
273
9
  0
DICTIONARY
  5
FF
330
C
100
AcDbDictionary
281
1
  3
WRITTEN_BY_EZDXF
350
100
  0
DICTIONARYVAR
  5
100
330
FF
100
DictionaryVariables
280
0
  1
1.4.1 @ 2025-05-15T13:42:35.491854+00:00
  0
ENDSEC
  0
EOF
